<svg xmlns="http://www.w3.org/2000/svg" width="15.52" height="15.52" viewBox="0 0 15.52 15.52"><defs><style>.a{fill:#007aff;}</style></defs><path class="a" d="M16.629,4.434a2.217,2.217,0,0,0-2.217-2.217h-.554V1.678a.565.565,0,0,0-.528-.569.554.554,0,0,0-.581.554v.554H4.989V1.678a.565.565,0,0,0-.528-.569.554.554,0,0,0-.581.554v.554H3.326A2.217,2.217,0,0,0,1.109,4.434V4.85a.139.139,0,0,0,.139.139H16.49a.139.139,0,0,0,.139-.139ZM1.109,14.411a2.217,2.217,0,0,0,2.217,2.217H14.411a2.217,2.217,0,0,0,2.217-2.217V6.2a.1.1,0,0,0-.1-.1H1.213a.1.1,0,0,0-.1.1ZM13.026,7.206a.831.831,0,1,1-.831.831A.831.831,0,0,1,13.026,7.206Zm0,2.771a.831.831,0,1,1-.831.831A.831.831,0,0,1,13.026,9.977ZM10.254,7.206a.831.831,0,1,1-.831.831A.831.831,0,0,1,10.254,7.206Zm0,2.771a.831.831,0,1,1-.831.831A.831.831,0,0,1,10.254,9.977Zm0,2.771a.831.831,0,1,1-.831.831A.831.831,0,0,1,10.254,12.749ZM7.483,9.977a.831.831,0,1,1-.831.831A.831.831,0,0,1,7.483,9.977Zm0,2.771a.831.831,0,1,1-.831.831A.831.831,0,0,1,7.483,12.749ZM4.711,9.977a.831.831,0,1,1-.831.831A.831.831,0,0,1,4.711,9.977Zm0,2.771a.831.831,0,1,1-.831.831A.831.831,0,0,1,4.711,12.749Z" transform="translate(-1.109 -1.109)"/></svg>